<?xml version="1.0" standalone="no"?>
<!DOCTYPE svg PUBLIC "-//W3C//DTD SVG 20010904//EN"
 "http://www.w3.org/TR/2001/REC-SVG-20010904/DTD/svg10.dtd">
<svg version="1.0" xmlns="http://www.w3.org/2000/svg"
 width="500.000000pt" height="500.000000pt" viewBox="0 0 500.000000 500.000000"
 preserveAspectRatio="xMidYMid meet">
<metadata>
Created by potrace 1.14, written by Peter Selinger 2001-2017
</metadata>
<g transform="translate(0.000000,500.000000) scale(0.100000,-0.100000)"
fill="#000000" stroke="none">
<path d="M1284 4151 c-3 -3 -35 -6 -72 -7 -37 -1 -67 -3 -67 -4 0 -1 -20 -4
-44 -6 -23 -2 -51 -9 -61 -14 -13 -7 -21 -7 -25 0 -4 7 -13 7 -26 0 -11 -6
-24 -8 -29 -5 -6 3 -10 2 -10 -3 0 -10 -42 -21 -92 -25 -16 -1 -28 -5 -28 -8
0 -8 -40 -22 -57 -20 -7 1 -13 -3 -13 -9 0 -6 -4 -9 -9 -5 -5 3 -12 1 -16 -5
-4 -6 -10 -8 -15 -5 -4 3 -13 -2 -20 -10 -7 -8 -16 -12 -21 -9 -5 3 -9 0 -9
-6 0 -6 -5 -8 -10 -5 -6 3 -13 0 -16 -9 -3 -8 -11 -13 -18 -10 -6 2 -21 -4
-33 -15 -11 -11 -24 -17 -27 -14 -3 4 -6 1 -6 -5 0 -6 -9 -14 -20 -17 -25 -8
-190 -167 -190 -183 0 -7 -7 -12 -16 -12 -8 0 -13 -4 -9 -9 3 -6 -4 -19 -17
-30 -12 -12 -19 -24 -15 -27 4 -4 0 -12 -8 -18 -13 -11 -61 -134 -72 -186 -3
-14 -10 -31 -16 -37 -6 -9 -6 -13 2 -13 7 0 10 -4 7 -8 -16 -27 -30 -322 -15
-322 4 0 6 -10 5 -22 -1 -13 2 -41 7 -63 5 -22 11 -49 12 -60 5 -29 39 -119
48 -126 4 -3 9 -16 10 -27 1 -12 4 -22 8 -22 4 0 12 -13 19 -30 7 -16 17 -30
23 -30 6 0 8 -3 4 -6 -6 -6 1 -17 45 -64 14 -16 23 -31 20 -34 -3 -3 2 -6 11
-6 11 0 14 -5 10 -17 -4 -10 -2 -14 4 -10 6 4 13 0 17 -8 3 -8 10 -15 16 -15
5 0 23 -13 38 -30 16 -16 34 -30 41 -30 6 0 11 -4 11 -9 0 -10 71 -56 83 -53
4 1 7 -5 7 -15 0 -9 3 -14 6 -10 3 3 24 -6 47 -20 62 -39 293 -153 311 -153 9
0 16 -3 16 -8 0 -7 109 -58 120 -56 3 1 22 -10 42 -23 21 -13 38 -20 38 -16 0
5 4 2 9 -5 4 -7 18 -14 29 -15 12 -1 22 -5 22 -9 0 -4 7 -8 15 -8 8 0 15 -4
15 -9 0 -8 35 -22 44 -18 3 1 16 -9 30 -22 14 -14 26 -20 26 -15 0 5 4 4 8 -2
4 -7 27 -28 50 -48 24 -20 41 -36 38 -36 -4 0 0 -13 8 -29 9 -16 12 -31 9 -35
-4 -3 -1 -6 6 -6 7 0 9 -5 4 -12 -4 -7 -8 -29 -8 -48 0 -19 -4 -41 -8 -47 -5
-7 -5 -13 -2 -13 3 0 -2 -13 -11 -29 -10 -17 -21 -28 -26 -25 -4 3 -8 -2 -8
-11 0 -9 -4 -13 -10 -10 -5 3 -10 1 -10 -5 0 -11 -69 -46 -113 -57 -12 -3 -41
-6 -64 -7 -24 -1 -43 -4 -43 -7 0 -4 -9 -9 -20 -12 -11 -3 -20 -2 -20 1 0 4
-21 6 -47 5 -27 0 -55 3 -63 7 -8 5 -22 4 -32 -1 -10 -5 -18 -6 -18 -2 0 8
-26 12 -92 13 -21 0 -38 4 -38 9 0 5 -14 8 -31 7 -16 -1 -32 1 -35 5 -2 4 -13
6 -24 4 -11 -2 -20 0 -20 4 0 4 -6 8 -12 9 -53 4 -78 9 -84 14 -3 4 -12 4 -20
1 -8 -3 -14 -1 -14 4 0 5 -6 10 -12 11 -34 2 -189 51 -203 63 -5 5 -19 9 -32
9 -13 0 -23 5 -23 10 0 6 -6 10 -13 10 -8 0 -28 7 -45 16 -17 8 -40 16 -51 17
-11 0 -19 6 -18 12 1 5 -6 9 -16 7 -9 -2 -17 2 -17 8 0 6 -4 9 -9 6 -5 -4 -11
-1 -13 6 -2 6 -11 9 -19 6 -12 -5 -14 -60 -12 -364 0 -198 2 -366 2 -374 1
-14 51 -44 67 -40 4 1 10 -3 14 -10 4 -6 17 -12 28 -13 12 -1 22 -5 22 -9 0
-4 12 -8 26 -8 14 0 23 -4 20 -9 -3 -5 7 -11 22 -14 63 -12 161 -41 158 -46
-2 -3 9 -7 25 -9 16 -1 43 -3 59 -4 17 -2 30 -5 30 -8 0 -3 12 -6 28 -7 29 -2
82 -9 147 -18 56 -9 516 -12 520 -4 3 3 20 5 40 4 19 -2 35 0 35 4 0 4 16 6
35 6 19 -1 35 2 35 6 0 4 10 6 22 4 12 -3 27 0 35 6 7 7 13 9 13 6 0 -4 18 0
41 8 23 8 45 12 50 9 5 -3 9 0 9 5 0 6 6 11 13 11 32 0 87 22 81 32 -4 6 -3 8
3 5 12 -7 77 16 69 24 -3 3 4 6 14 7 45 4 50 6 50 19 0 7 3 13 8 12 15 -2 52
14 52 22 0 5 5 9 11 9 6 0 17 7 26 15 8 8 19 13 24 10 5 -4 9 1 9 9 0 9 5 16
10 16 15 0 160 145 160 159 0 7 5 9 10 6 9 -5 12 1 9 21 0 3 10 14 22 25 12
10 18 19 13 19 -5 0 -4 4 1 8 18 13 36 53 29 64 -4 6 -3 8 3 5 7 -5 56 83 52
96 0 1 5 16 11 32 15 38 17 48 36 150 7 37 8 255 2 310 -2 22 -7 46 -11 53 -5
6 -6 12 -3 12 5 0 -18 88 -31 120 -4 8 -7 17 -8 20 -8 30 -31 80 -37 80 -4 0
-8 6 -8 14 0 7 -7 19 -15 26 -9 7 -13 15 -11 17 3 3 -10 21 -27 40 -18 20 -31
38 -31 42 1 3 -14 20 -32 38 -19 17 -34 29 -34 26 0 -3 -12 7 -27 22 -16 15
-39 35 -53 44 -14 8 -29 21 -33 28 -4 7 -15 13 -22 13 -8 0 -15 5 -15 10 0 6
-9 10 -20 10 -11 0 -20 7 -20 16 0 8 -3 13 -7 11 -5 -2 -21 4 -38 14 -16 10
-41 24 -55 31 -14 6 -33 18 -42 26 -10 9 -18 12 -18 8 0 -4 -14 3 -32 15 -17
13 -28 16 -23 8 5 -9 1 -8 -12 4 -11 9 -23 17 -28 17 -14 0 -120 53 -127 65
-4 5 -8 6 -8 2 0 -5 -12 -1 -27 7 -16 8 -43 20 -60 28 -18 7 -33 17 -33 22 0
4 -7 6 -15 2 -8 -3 -15 -1 -15 5 0 5 -12 14 -27 20 -58 22 -99 43 -122 63 -15
13 -21 15 -17 6 4 -8 0 -6 -9 5 -9 11 -18 18 -22 16 -3 -2 -20 8 -39 22 -18
15 -35 27 -38 27 -13 0 -46 41 -64 78 -22 46 -23 129 -1 143 8 5 10 9 5 9 -5
0 -3 7 4 15 7 8 9 15 5 15 -4 0 4 9 18 20 14 11 30 20 36 20 6 0 11 4 11 9 0
10 73 39 105 41 65 5 236 3 270 -3 22 -4 54 -9 70 -11 17 -2 30 -5 30 -6 0 -3
39 -11 65 -14 14 -1 31 -6 38 -10 7 -4 17 -4 22 -1 6 3 10 1 10 -6 0 -7 3 -9
7 -6 3 4 11 2 18 -3 6 -5 21 -11 33 -13 12 -2 25 -6 28 -10 4 -4 16 -7 26 -7
10 0 26 -4 36 -9 29 -16 87 -36 95 -33 4 1 7 -3 7 -8 0 -6 7 -10 15 -10 8 0
15 -4 15 -10 0 -5 7 -7 15 -4 8 4 15 1 15 -6 0 -6 4 -9 9 -5 5 3 17 -2 25 -11
12 -11 16 -12 16 -2 0 10 2 10 9 -1 8 -12 11 -9 17 14 4 16 13 40 20 54 7 13
11 28 8 33 -3 4 0 8 5 8 6 0 11 7 11 15 0 8 4 23 9 33 10 19 18 42 19 56 0 5
4 12 9 15 8 5 28 62 34 96 1 6 9 16 18 23 9 8 10 11 3 7 -7 -4 -4 9 8 30 11
19 20 40 20 45 0 6 9 29 20 53 11 23 30 71 44 107 l24 64 -42 20 c-22 10 -48
20 -56 22 -8 2 -16 8 -18 14 -2 5 -8 7 -13 4 -6 -3 -16 0 -24 6 -8 7 -15 9
-15 5 0 -4 -6 -2 -13 4 -8 6 -22 12 -33 14 -10 2 -26 6 -34 9 -26 10 -161 50
-179 53 -9 2 -17 4 -18 5 -2 2 -7 4 -13 5 -5 1 -13 4 -17 5 -5 1 -16 2 -25 1
-10 -1 -18 1 -18 6 0 4 -10 9 -22 10 -74 5 -88 7 -88 12 0 6 -13 8 -97 12 -24
2 -43 5 -43 9 0 3 -28 6 -62 7 -35 1 -107 3 -161 5 -53 3 -100 2 -103 -1z"/>
<path d="M2890 4099 l-25 -9 2 -1566 c1 -862 5 -1569 8 -1572 10 -10 825 -7
826 3 1 6 2 271 3 590 l1 580 468 1 c257 0 469 3 472 6 7 6 8 664 2 675 -3 4
-213 8 -467 8 -306 0 -464 3 -468 10 -4 5 -7 138 -7 293 l0 284 25 12 c19 10
145 12 515 12 l491 -1 -1 332 c0 182 -3 334 -7 338 -6 6 -1562 10 -1593 4 -5
-1 -14 -1 -19 0 -12 3 -129 3 -136 1 -19 -6 -50 -5 -50 2 0 10 -7 9 -40 -3z"/>
</g>
</svg>
